<svg width="40" height="40" viewBox="0 0 40 40" fill="none" xmlns="http://www.w3.org/2000/svg">
<mask id="mask0_88_566" style="mask-type:alpha" maskUnits="userSpaceOnUse" x="0" y="0" width="40" height="40">
<rect width="40" height="40" fill="#D9D9D9"/>
</mask>
<g mask="url(#mask0_88_566)">
<path d="M20 35.5417L17.75 33.5C15 31.0278 12.7222 28.8889 10.9167 27.0833C9.11111 25.2778 7.67389 23.6594 6.605 22.2283C5.535 20.7983 4.79167 19.4861 4.375 18.2917C3.95833 17.0972 3.75 15.875 3.75 14.625C3.75 12.0972 4.59722 9.98611 6.29167 8.29167C7.98611 6.59722 10.0972 5.75 12.625 5.75C14.0417 5.75 15.3956 6.05556 16.6867 6.66667C17.9789 7.27778 19.0833 8.15278 20 9.29167C20.9722 8.15278 22.09 7.27778 23.3533 6.66667C24.6178 6.05556 25.9583 5.75 27.375 5.75C29.9028 5.75 32.0139 6.59722 33.7083 8.29167C35.4028 9.98611 36.25 12.0972 36.25 14.625C36.25 15.875 36.0417 17.0972 35.625 18.2917C35.2083 19.4861 34.4656 20.7983 33.3967 22.2283C32.3267 23.6594 30.8889 25.2778 29.0833 27.0833C27.2778 28.8889 25 31.0278 22.25 33.5L20 35.5417ZM20 31.3333C22.6111 28.9722 24.7639 26.9511 26.4583 25.27C28.1528 23.59 29.4933 22.125 30.48 20.875C31.4656 19.625 32.1528 18.5139 32.5417 17.5417C32.9306 16.5694 33.125 15.5972 33.125 14.625C33.125 12.9583 32.5767 11.5833 31.48 10.5C30.3822 9.41667 29.0139 8.875 27.375 8.875C26.0972 8.875 24.91 9.24278 23.8133 9.97833C22.7156 10.715 21.9306 11.6667 21.4583 12.8333H18.5417C18.0972 11.6667 17.3194 10.715 16.2083 9.97833C15.0972 9.24278 13.9028 8.875 12.625 8.875C10.9861 8.875 9.61833 9.41667 8.52167 10.5C7.42389 11.5833 6.875 12.9583 6.875 14.625C6.875 15.5972 7.06944 16.5694 7.45833 17.5417C7.84722 18.5139 8.535 19.625 9.52167 20.875C10.5072 22.125 11.8472 23.59 13.5417 25.27C15.2361 26.9511 17.3889 28.9722 20 31.3333Z" fill="#FCEEF7"/>
</g>
</svg>
