<svg width="30" height="30" viewBox="0 0 30 30" fill="none" xmlns="http://www.w3.org/2000/svg">
<mask id="mask0_49_1024" style="mask-type:alpha" maskUnits="userSpaceOnUse" x="0" y="0" width="30" height="30">
<rect width="30" height="30" fill="#D9D9D9"/>
</mask>
<g mask="url(#mask0_49_1024)">
<path d="M7.18725 21.8123C8.41675 20.9373 9.6615 20.2655 10.9215 19.797C12.182 19.328 13.5415 19.0935 15 19.0935C16.4585 19.0935 17.818 19.328 19.0785 19.797C20.3385 20.2655 21.5935 20.9373 22.8435 21.8123C23.7185 20.7498 24.3488 19.6613 24.7343 18.5468C25.1198 17.4323 25.3125 16.25 25.3125 15C25.3125 12.0835 24.323 9.6355 22.344 7.656C20.3645 5.677 17.9165 4.6875 15 4.6875C12.0835 4.6875 9.6355 5.677 7.656 7.656C5.677 9.6355 4.6875 12.0835 4.6875 15C4.6875 16.25 4.8855 17.4323 5.2815 18.5468C5.677 19.6613 6.31225 20.7498 7.18725 21.8123ZM15 15.9998C13.7915 15.9998 12.776 15.5885 11.9535 14.766C11.1305 13.943 10.719 12.9273 10.719 11.7188C10.719 10.5312 11.1305 9.526 11.9535 8.703C12.776 7.88 13.7915 7.4685 15 7.4685C16.2085 7.4685 17.224 7.88 18.0465 8.703C18.8695 9.526 19.281 10.5312 19.281 11.7188C19.281 12.9273 18.8695 13.943 18.0465 14.766C17.224 15.5885 16.2085 15.9998 15 15.9998ZM15 27.2812C13.3125 27.2812 11.7188 26.9583 10.2188 26.3123C8.71875 25.6668 7.41675 24.7865 6.31275 23.6715C5.20825 22.557 4.33325 21.255 3.68775 19.7655C3.04175 18.276 2.71875 16.6875 2.71875 15C2.71875 13.3125 3.04175 11.7188 3.68775 10.2188C4.33325 8.71875 5.2135 7.41675 6.3285 6.31275C7.443 5.20825 8.745 4.33325 10.2345 3.68775C11.724 3.04175 13.3125 2.71875 15 2.71875C16.6875 2.71875 18.2812 3.04175 19.7812 3.68775C21.2812 4.33325 22.5833 5.2135 23.6873 6.3285C24.7918 7.443 25.6668 8.745 26.3123 10.2345C26.9583 11.724 27.2812 13.3125 27.2812 15C27.2812 16.6875 26.9583 18.2812 26.3123 19.7812C25.6668 21.2812 24.7865 22.5833 23.6715 23.6873C22.557 24.7918 21.255 25.6668 19.7655 26.3123C18.276 26.9583 16.6875 27.2812 15 27.2812ZM15 25.3125C16.125 25.3125 17.203 25.151 18.234 24.828C19.2655 24.505 20.2812 23.9685 21.2812 23.2185C20.2812 22.5105 19.2605 21.974 18.219 21.609C17.177 21.2445 16.104 21.0623 15 21.0623C13.896 21.0623 12.8178 21.2445 11.7653 21.609C10.7133 21.974 9.69775 22.5105 8.71875 23.2185C9.71875 23.9685 10.7345 24.505 11.766 24.828C12.797 25.151 13.875 25.3125 15 25.3125ZM15 14.031C15.6665 14.031 16.2135 13.8123 16.641 13.3748C17.068 12.9373 17.2815 12.3853 17.2815 11.7188C17.2815 11.0522 17.068 10.5055 16.641 10.0785C16.2135 9.651 15.6665 9.43725 15 9.43725C14.3335 9.43725 13.7865 9.651 13.359 10.0785C12.932 10.5055 12.7185 11.0522 12.7185 11.7188C12.7185 12.3853 12.932 12.9373 13.359 13.3748C13.7865 13.8123 14.3335 14.031 15 14.031Z" fill="#FCEEF7"/>
</g>
</svg>
