<svg width="40" height="40" viewBox="0 0 40 40" fill="none" xmlns="http://www.w3.org/2000/svg">
<mask id="mask0_135_1860" style="mask-type:alpha" maskUnits="userSpaceOnUse" x="0" y="0" width="40" height="40">
<rect width="40" height="40" fill="#D9D9D9"/>
</mask>
<g mask="url(#mask0_135_1860)">
<path d="M32.4583 34.625L22.1249 24.2917C21.3194 24.9584 20.3822 25.4789 19.3133 25.8534C18.2433 26.2289 17.1111 26.4167 15.9166 26.4167C12.9722 26.4167 10.4788 25.3956 8.43661 23.3534C6.39549 21.3123 5.37494 18.8195 5.37494 15.875C5.37494 12.9306 6.38883 10.4373 8.41661 8.39504C10.4444 6.35393 12.9305 5.33337 15.8749 5.33337C18.8472 5.33337 21.3544 6.35393 23.3966 8.39504C25.4377 10.4373 26.4583 12.9306 26.4583 15.875C26.4583 17.0695 26.271 18.2012 25.8966 19.27C25.521 20.34 24.9999 21.2917 24.3333 22.125L34.6666 32.4167L32.4583 34.625ZM15.9166 23.2917C17.9722 23.2917 19.7222 22.5695 21.1666 21.125C22.6111 19.6806 23.3333 17.9306 23.3333 15.875C23.3333 13.7917 22.6111 12.0345 21.1666 10.6034C19.7222 9.17337 17.9722 8.45837 15.9166 8.45837C13.8333 8.45837 12.0766 9.17337 10.6466 10.6034C9.21549 12.0345 8.49994 13.7917 8.49994 15.875C8.49994 17.9306 9.21549 19.6806 10.6466 21.125C12.0766 22.5695 13.8333 23.2917 15.9166 23.2917Z" fill="#FCEEF7"/>
</g>
</svg>
