<svg width="40" height="40" viewBox="0 0 40 40" fill="none" xmlns="http://www.w3.org/2000/svg">
<mask id="mask0_150_2942" style="mask-type:alpha" maskUnits="userSpaceOnUse" x="0" y="0" width="40" height="40">
<rect width="40" height="40" fill="#D9D9D9"/>
</mask>
<g mask="url(#mask0_150_2942)">
<path d="M20 35.5417L17.75 33.5C15 31.0278 12.7222 28.8889 10.9167 27.0833C9.11111 25.2778 7.67389 23.6594 6.605 22.2283C5.535 20.7983 4.79167 19.4861 4.375 18.2917C3.95833 17.0972 3.75 15.875 3.75 14.625C3.75 12.0972 4.59722 9.98611 6.29167 8.29167C7.98611 6.59722 10.0972 5.75 12.625 5.75C14.0417 5.75 15.3956 6.05556 16.6867 6.66667C17.9789 7.27778 19.0833 8.15278 20 9.29167C20.9722 8.15278 22.09 7.27778 23.3533 6.66667C24.6178 6.05556 25.9583 5.75 27.375 5.75C29.9028 5.75 32.0139 6.59722 33.7083 8.29167C35.4028 9.98611 36.25 12.0972 36.25 14.625C36.25 15.875 36.0417 17.0972 35.625 18.2917C35.2083 19.4861 34.4656 20.7983 33.3967 22.2283C32.3267 23.6594 30.8889 25.2778 29.0833 27.0833C27.2778 28.8889 25 31.0278 22.25 33.5L20 35.5417Z" fill="#FCEEF7"/>
</g>
</svg>
